# xmcd
#
# Track frame offsets:
#   150
#   18531
#   31014
#   53415
#   67101
#   89804
#   102693
#   123702
#   137928
#   161353
#   183204
#   198208
#   215493
#   228967
#   244316
#   256139
#   273000
#   286603
#   302370
#   318971
#   335921
#
# Disc length: 4656 seconds
#
# Revision: 0
# Processed by: cddbd v1.5.1PL0 Copyright (c) Steve Scherf et al.
# Submitted via: Media_Universe 3.0
#
DISCID=2b122e15
DTITLE=Chris LeDoux - Haywire and Horsepower
DYEAR=1900
DGENRE=Country
TTITLE0=Honky Tonk World
TTITLE1=Dallas Days and Fort Worth Nights
TTITLE2=Tougher Than The Rest
TTITLE3=Big Love
TTITLE4=Love Needs A Fool
TTITLE5=Slow Down
TTITLE6=Sons Of The Pioneers
TTITLE7=Billy The Kid
TTITLE8=Hairtrigger Colt 44
TTITLE9=Light Of The World
TTITLE10=Horsepower
TTITLE11=One Less Tornado
TTITLE12=A Cowboy Was Born
TTITLE13=Smack Dab In The Middle
TTITLE14=The Buffalo Grass
TTITLE15=Feels Like I'm Gettin Into Something Good
TTITLE16=The Ride
TTITLE17=Rodeo Moon
TTITLE18=Between The Rainbows And The Rain
TTITLE19=Pass My Hat
TTITLE20=Blue Bonnet Blues
EXTD=
EXTT0=
EXTT1=
EXTT2=
EXTT3=
EXTT4=
EXTT5=
EXTT6=
EXTT7=
EXTT8=
EXTT9=
EXTT10=
EXTT11=
EXTT12=
EXTT13=
EXTT14=
EXTT15=
EXTT16=
EXTT17=
EXTT18=
EXTT19=
EXTT20=
PLAYORDER=
